<svg width="41" height="40" viewBox="0 0 41 40" fill="none" xmlns="http://www.w3.org/2000/svg">
<path d="M16.6519 4.79992C12.4199 3.57592 6.47585 0.991924 4.34785 5.27192C2.01985 9.97591 6.13985 14.3999 8.82785 17.8799C10.6759 20.5199 10.0199 22.7759 7.57185 25.3519C2.09985 31.0879 4.56385 38.7679 12.6199 38.8959C16.1319 38.8959 19.3879 37.2319 22.4839 35.5679C28.4199 32.3679 32.0839 34.7279 35.9479 31.9519C38.5399 30.1039 36.7079 25.3839 35.6359 22.5439C34.7215 20.1689 34.6621 17.5499 35.4679 15.1359C36.2679 12.0799 36.7799 7.13592 33.4039 5.60792C31.8679 5.03192 30.0999 5.69592 28.4999 5.17592C26.5159 4.51192 25.5239 2.16792 23.5799 1.39192C19.7959 -0.128077 19.6999 5.59992 16.6519 4.79992Z" stroke="#3A8600" strokeWidth="0.8" stroke-miterlimit="10"/>
<path d="M23.8518 2.31196C25.6998 3.03196 26.6598 5.23196 28.5478 5.86396C30.0278 6.35996 31.7478 5.71196 33.1718 6.30396C36.3718 7.64796 36.0758 12.4639 35.2118 15.3359C34.5189 17.6501 34.5834 20.1251 35.3958 22.3999C36.3958 25.1199 38.0758 29.5999 35.6118 31.3759C31.9158 34.0479 28.4118 31.8959 22.8118 34.8799C19.8758 36.4319 16.7798 38.0079 13.4678 37.9519C5.86781 37.8399 3.52381 30.5599 8.57981 25.1519C10.8518 22.7119 11.5158 20.5359 9.73981 18.0639C7.33981 14.6959 3.40381 10.5519 5.61981 6.11196C7.61981 2.02396 13.2198 4.39996 17.2278 5.48796C20.1078 6.27196 20.2438 0.887956 23.8518 2.31196Z" stroke="#3A8600" strokeWidth="0.784" stroke-miterlimit="10"/>
<path d="M24.0842 3.19995C25.8362 3.87995 26.7802 5.91995 28.5642 6.51995C29.9642 6.99195 31.5722 6.39995 32.9402 6.96795C36.0042 8.28792 35.7002 12.7999 34.9562 15.5359C34.3364 17.7305 34.4062 20.0625 35.1562 22.2159C36.0842 24.8239 37.6202 29.0559 35.2842 30.7679C31.7882 33.3279 28.4522 31.3919 23.1002 34.1519C20.3242 35.5999 17.4042 37.0479 14.3002 36.9759C7.14022 36.7999 4.90022 29.9999 9.5642 24.8719C11.6602 22.5679 12.2682 20.5039 10.6122 18.1759C8.34822 14.9759 4.75622 11.0559 6.85222 6.87195C8.7722 3.05595 14.0522 5.21595 17.8122 6.19995C20.5002 6.91995 20.6922 1.91995 24.0842 3.19995Z" stroke="#3A8600" strokeWidth="0.752" stroke-miterlimit="10"/>
<path d="M24.3159 4.15194C25.9799 4.79994 26.8999 6.67194 28.5799 7.23994C29.8999 7.67994 31.4199 7.15194 32.7079 7.69594C35.5879 8.92798 35.3959 13.152 34.6999 15.744C34.1489 17.8197 34.2184 20.0113 34.8999 22.048C35.7719 24.544 37.1479 28.536 34.9479 30.176C31.6519 32.632 28.4679 30.896 23.4039 33.448C20.7799 34.776 18.0359 36.104 15.0999 36.016C8.4199 35.832 6.2999 29.456 10.5559 24.624C12.4759 22.464 13.0199 20.52 11.4999 18.32C9.41191 15.288 6.0999 11.592 8.1079 7.66394C9.91591 4.08794 14.8279 6.06394 18.3959 6.91994C20.9399 7.55994 21.1319 2.95194 24.3159 4.15194Z" stroke="#3A8600" strokeWidth="0.736" stroke-miterlimit="10"/>
<path d="M24.5482 5.07202C26.1482 5.64802 27.0042 7.39202 28.5962 7.92002C29.8442 8.34402 31.2602 7.88002 32.4682 8.39202C35.1802 9.56002 35.0522 13.496 34.4442 15.944C33.9652 17.9077 34.0428 19.9659 34.6682 21.888C35.4682 24.288 36.7002 28.008 34.6282 29.584C31.5242 31.928 28.4922 30.384 23.7242 32.784C21.2602 34 18.6762 35.184 15.9322 35.096C9.71618 34.84 7.70016 28.92 11.5562 24.384C13.3002 22.36 13.7962 20.536 12.4042 18.464C10.4762 15.6 7.50016 12.128 9.36418 8.46402C11.0682 5.12002 15.6362 6.86402 18.9642 7.66402C21.3562 8.20002 21.5802 4.00002 24.5482 5.07202Z" stroke="#3A8600" strokeWidth="0.72" stroke-miterlimit="10"/>
<path d="M24.7881 5.99199C26.2681 6.51999 27.1161 8.10403 28.6121 8.60803C29.7801 9.00803 31.1081 8.60803 32.2361 9.09603C34.7721 10.2 34.7161 13.84 34.1881 16.144C33.7742 17.9993 33.857 19.9309 34.4281 21.744C35.1561 24.008 36.2361 27.504 34.2921 29.016C31.3961 31.2 28.5001 29.896 24.0361 32C21.7241 33.104 19.3161 34.184 16.7641 34.072C11.0041 33.808 9.06005 28.336 12.5561 24.112C14.1561 22.224 14.5561 20.52 13.3001 18.584C11.5401 15.88 8.86805 12.632 10.6201 9.23203C12.2201 6.11199 16.4361 7.63199 19.5561 8.32003C21.7721 8.84803 22.0281 4.99999 24.7881 5.99199Z" stroke="#3A8600" strokeWidth="0.688" stroke-miterlimit="10"/>
<path d="M25.0198 6.91195C26.4038 7.39195 27.2358 8.82398 28.6278 9.31198C29.7238 9.67998 30.9558 9.31198 32.0038 9.80798C34.3558 10.856 34.4038 14.208 33.9318 16.36C33.5881 18.1013 33.676 19.9004 34.1878 21.6C34.8438 23.744 35.7878 27 33.9638 28.44C31.2678 30.568 28.5238 29.44 24.3638 31.368C22.2118 32.36 19.9718 33.304 17.6118 33.184C12.3158 32.88 10.4678 27.864 13.6118 23.944C14.9958 22.184 15.3798 20.608 14.2438 18.8C12.6438 16.272 10.2998 13.24 11.9238 10.096C13.4198 7.21595 17.2998 8.49598 20.1958 9.11198C22.1878 9.48798 22.4758 6.03195 25.0198 6.91195Z" stroke="#3A8600" strokeWidth="0.672" stroke-miterlimit="10"/>
<path d="M25.252 7.83195C26.548 8.26392 27.348 9.54392 28.644 9.98392C29.66 10.3279 30.796 10.0399 31.772 10.4879C33.948 11.4799 34.036 14.5359 33.676 16.5439C33.406 18.1602 33.499 19.8161 33.948 21.3919C34.532 23.4319 35.316 26.4319 33.636 27.7919C31.14 29.8079 28.548 28.8879 24.652 30.6079C22.652 31.4879 20.588 32.3119 18.42 32.1679C13.62 31.8399 11.836 27.2639 14.548 23.6479C15.764 22.0479 16.084 20.5599 15.084 18.8879C13.668 16.5279 11.612 13.7199 13.124 10.8399C14.516 8.19192 18.044 9.23992 20.724 9.76792C22.604 10.1359 22.9 7.05595 25.252 7.83195Z" stroke="#3A8600" strokeWidth="0.64" stroke-miterlimit="10"/>
<path d="M25.4918 8.75207C26.6918 9.13607 27.4598 10.2641 28.6918 10.6721C29.6358 10.9921 30.6758 10.7601 31.5718 11.1841C33.5718 12.1121 33.7238 14.8801 33.4518 16.7841C33.2482 18.2817 33.3462 19.8049 33.7398 21.2641C34.2518 23.1841 34.8918 25.9441 33.3398 27.2481C31.0438 29.1601 28.5958 28.4401 24.9958 29.9441C23.1478 30.7441 21.2518 31.4161 19.2758 31.2561C14.8998 30.8961 13.2518 26.7681 15.5798 23.4481C16.6118 21.9681 16.8838 20.6241 16.0118 19.0881C14.7718 16.8881 13.0118 14.2881 14.4118 11.6881C15.6918 9.28807 18.8838 10.1441 21.3318 10.5361C23.0198 10.7761 23.3638 8.08007 25.4918 8.75207Z" stroke="#3A8600" strokeWidth="0.624" stroke-miterlimit="10"/>
<path d="M25.7238 9.67206C26.8358 10.0081 27.5718 10.9841 28.6758 11.3521C29.5398 11.6481 30.4838 11.4881 31.2998 11.8801C33.1238 12.7521 33.3478 15.2241 33.1638 16.9521C33.0277 18.3296 33.1278 19.7202 33.4598 21.0641C33.9078 22.8721 34.4038 25.3921 32.9798 26.6641C30.8998 28.4321 28.5798 27.9201 25.2998 29.2081C23.6765 29.9641 21.8975 30.3259 20.1078 30.2641C16.1878 29.8641 14.6438 26.1921 16.5718 23.1761C17.0167 22.6171 17.2861 21.9389 17.3458 21.2269C17.4057 20.5151 17.2532 19.8014 16.9078 19.1761C15.8358 17.1441 14.3878 14.7921 15.6598 12.4241C16.8438 10.2481 19.6598 10.9041 21.9158 11.1921C23.4278 11.4241 23.8118 9.10406 25.7238 9.67206Z" stroke="#3A8600" strokeWidth="0.608" stroke-miterlimit="10"/>
<path d="M25.9561 10.5919C26.9801 10.8719 27.6921 11.6959 28.6921 12.0399C29.4921 12.3119 30.2921 12.2079 31.0921 12.5759C32.7401 13.3759 33.0281 15.5679 32.9321 17.1519C32.8665 18.411 32.9715 19.673 33.2441 20.9039C33.6201 22.5919 33.9641 24.8639 32.6681 26.0319C30.7801 27.7279 28.6681 27.4239 25.6041 28.5039C24.1274 29.1304 22.5251 29.4043 20.9241 29.3039C17.4681 28.8719 16.0201 25.6559 17.5641 22.9039C17.9177 22.3795 18.1255 21.7705 18.1663 21.1394C18.2071 20.5082 18.0793 19.8775 17.7961 19.3119C16.8921 17.4479 15.7481 15.3119 16.9081 13.2159C17.9881 11.2719 20.4841 11.7119 22.5081 11.9039C23.8441 12.0639 24.2601 10.1279 25.9561 10.5919Z" stroke="#3A8600" strokeWidth="0.576" stroke-miterlimit="10"/>
<path d="M26.188 11.512C27.124 11.744 27.788 12.416 28.708 12.728C29.4296 12.8574 30.1408 13.0391 30.836 13.272C32.3 14.024 32.66 15.912 32.652 17.352C32.6529 18.4879 32.7628 19.6211 32.98 20.736C33.284 22.336 33.484 24.344 32.316 25.432C30.628 27.032 28.62 26.928 25.916 27.832C24.5902 28.3335 23.1667 28.5224 21.756 28.384C21.1175 28.333 20.5012 28.1263 19.9612 27.7819C19.421 27.4376 18.9736 26.9662 18.6578 26.4089C18.342 25.8516 18.1676 25.2254 18.1499 24.5851C18.1322 23.9448 18.2716 23.3099 18.556 22.736C18.8198 22.2475 18.9678 21.7048 18.9886 21.15C19.0094 20.5952 18.9024 20.043 18.676 19.536C17.948 17.832 17.076 15.928 18.156 14.088C19.124 12.376 21.276 12.6 23.06 12.688C24.26 12.712 24.708 11.144 26.188 11.512Z" stroke="#3A8600" strokeWidth="0.56" stroke-miterlimit="10"/>
<path d="M26.4278 12.432C27.2137 12.7099 27.9806 13.0386 28.7238 13.416C29.3653 13.5453 29.9943 13.73 30.6038 13.968C31.8918 14.664 32.3158 16.256 32.3958 17.552C32.4518 18.528 32.5878 19.592 32.7398 20.576C32.9718 22.04 33.0198 23.816 31.9878 24.84C30.4998 26.328 28.6438 26.44 26.1958 27.088C25.0238 27.4633 23.7812 27.5646 22.5638 27.384C22.0144 27.3117 21.4879 27.1177 21.0228 26.8163C20.5577 26.5149 20.1657 26.1135 19.8753 25.6414C19.5849 25.1694 19.4033 24.6385 19.3439 24.0875C19.2845 23.5365 19.3487 22.9791 19.5318 22.456C19.8799 21.5496 19.8799 20.5465 19.5318 19.64C18.9798 18.104 18.4438 16.44 19.3718 14.84C20.2998 13.24 22.0358 13.336 23.6038 13.368C24.6758 13.384 25.1558 12.16 26.4278 12.432Z" stroke="#3A8600" strokeWidth="0.544" stroke-miterlimit="10"/>
<path d="M26.66 13.3519C27.3736 13.5426 28.0694 13.7942 28.74 14.1039C29.2906 14.237 29.8265 14.4246 30.34 14.6639C30.8457 15.0167 31.2667 15.4774 31.5724 16.013C31.8782 16.5484 32.0612 17.1451 32.108 17.7599C32.228 18.5999 32.364 19.5279 32.468 20.4079C32.62 21.7599 32.524 23.2879 31.668 24.2479C30.364 25.5999 28.66 25.9439 26.508 26.3999C25.4839 26.6449 24.418 26.6585 23.388 26.4399C22.446 26.2575 21.6141 25.7106 21.0733 24.9181C20.5324 24.1256 20.3264 23.1516 20.5 22.2079C20.6645 21.413 20.6372 20.5902 20.42 19.8079C20.044 18.4319 19.804 16.9839 20.612 15.6639C21.42 14.3439 22.9 14.2079 24.212 14.0799C25.084 13.9999 25.612 13.1759 26.66 13.3519Z" stroke="#3A8600" strokeWidth="0.512" stroke-miterlimit="10"/>
<path d="M26.9001 14.2721C27.5393 14.3691 28.165 14.541 28.7641 14.7841C29.2277 14.9305 29.6753 15.1234 30.1001 15.3601C30.9913 15.9746 31.6172 16.9034 31.8521 17.9601C32.0447 18.7074 32.1705 19.4705 32.2281 20.2401C32.3713 21.4571 32.0357 22.6821 31.2921 23.6561C30.1079 24.8852 28.4936 25.6078 26.7881 25.6721C25.9167 25.7978 25.0283 25.7266 24.1881 25.4641C23.4333 25.2312 22.7694 24.7698 22.2879 24.1437C21.8065 23.5175 21.5312 22.7574 21.5001 21.9681C21.4836 21.2874 21.4221 20.6086 21.3161 19.9361C21.0431 18.7431 21.2407 17.4909 21.8681 16.4401C22.2152 15.9855 22.6507 15.6059 23.1484 15.3241C23.6461 15.0422 24.1957 14.864 24.7641 14.8001C25.5001 14.6561 26.1001 14.1921 26.9001 14.2721Z" stroke="#3A8600" strokeWidth="0.496" stroke-miterlimit="10"/>
<path d="M27.1321 24.968C29.8317 24.968 32.0201 22.7796 32.0201 20.08C32.0201 17.3804 29.8317 15.192 27.1321 15.192C24.4325 15.192 22.2441 17.3804 22.2441 20.08C22.2441 22.7796 24.4325 24.968 27.1321 24.968Z" stroke="#3A8600" strokeWidth="0.464" stroke-miterlimit="10"/>
</svg>
